PathFileType	4	(X/Y/Z)	C:\Users\WrightLab\Desktop\Jo\P4V116.trc
DataRate	CameraRate	NumFrames	NumMarkers	Units	OrigDataRate	OrigDataStartFrame	OrigNumFrames
100.00	100.00	       23	19	mm	100.00	460	       525
Frame#	Time	Headset_Front			Headset_Back			Headset_Left			Headset_Right			Left_Shoulder			Right_Shoulder			Sternum			C7			Left Elbow			Right Elbow			Left Wrist			Right Wrist			Left ASIS			Right ASIS			S2			Left Knee			Right Knee			Left Ankle			Right Ankle			
		X1	Y1	Z1	X2	Y2	Z2	X3	Y3	Z3	X4	Y4	Z4	X5	Y5	Z5	X6	Y6	Z6	X7	Y7	Z7	X8	Y8	Z8	X9	Y9	Z9	X10	Y10	Z10	X11	Y11	Z11	X12	Y12	Z12	X13	Y13	Z13	X14	Y14	Z14	X15	Y15	Z15	X16	Y16	Z16	X17	Y17	Z17	X18	Y18	Z18	X19	Y19	Z19	

460	4.590													-85.43758	1582.83313	2289.98291	-114.02756	1779.83203	2240.48071	-235.36914	1519.12183	2194.07788				-88.34496	1245.08350	2455.58179				-279.44604	998.85254	2478.67725	-415.48605	974.32599	2008.64331										-220.99876	607.88123	2424.63306	-268.07425	587.87183	2089.16333	5.89881	178.52332	2266.89917	-120.24843	98.43237	2143.20337	
461	4.600													-91.15172	1583.51636	2292.87817	-120.54178	1780.78845	2242.82520	-239.01707	1518.98340	2192.70117				-95.93243	1246.05823	2458.04370				-286.52484	998.59729	2477.37988	-414.34784	973.90833	2005.88635										-230.97955	608.97931	2425.01758	-267.06354	587.68591	2086.82813	-3.03030	176.52805	2278.16235	-120.26833	98.40844	2143.23145	
462	4.610													-97.28918	1584.27625	2294.77026	-126.25288	1781.22168	2243.74170	-242.26559	1519.26733	2192.50732				-103.60970	1246.89612	2460.99756				-293.29758	998.56317	2477.31616	-412.26242	974.47162	1998.33423										-240.90536	609.91266	2424.75098	-266.16946	588.05719	2085.66064	-11.29399	172.86986	2287.29199	-120.20426	98.50404	2143.14038	
463	4.620													-103.10297	1584.70996	2297.23975	-132.87204	1781.73376	2245.93091	-245.54143	1519.52673	2192.23950				-110.97680	1247.28870	2463.07227				-300.15393	999.06042	2476.93896	-410.91821	974.40259	1994.69666										-250.49759	612.00043	2424.75732	-265.52527	588.30011	2084.82080	-22.12770	171.02110	2297.50269	-120.30300	98.33531	2143.28149	
464	4.630													-108.94658	1585.51135	2300.13647	-139.40550	1782.69104	2247.46143	-249.11987	1519.48462	2191.09351				-118.88922	1247.94946	2465.89209				-307.25903	998.66577	2476.04736	-410.13376	973.92438	1991.19800										-259.34283	612.51361	2423.81128	-264.50366	587.62500	2083.97656	-31.82780	168.82222	2309.44287	-120.24557	98.38549	2143.20117	
465	4.640													-115.03048	1586.71582	2302.55054	-145.82724	1783.03601	2248.96021	-252.86591	1519.27441	2190.20386				-126.62912	1248.52942	2468.15869				-313.95099	998.79944	2475.82178	-408.83139	973.83569	1987.61865										-268.66431	613.21289	2423.08032	-263.30289	588.10138	2082.40991	-43.25367	164.26073	2318.69971	-120.25143	98.31300	2143.21191	
466	4.650													-121.00440	1586.78589	2304.69678	-151.98125	1783.62695	2249.78760	-256.16357	1519.40918	2189.94409				-134.82204	1249.22546	2470.75439				-320.91162	998.45758	2474.60474	-407.30923	973.77686	1982.97974										-277.24442	613.87207	2422.54395	-261.66064	588.05109	2081.62939	-53.60231	160.90408	2330.31226	-120.32346	98.18295	2143.31519	
467	4.660													-127.16556	1586.57031	2306.56787	-158.79990	1784.08606	2251.22046	-259.78830	1518.85071	2190.00269				-142.55487	1249.33606	2472.64185				-327.73264	998.02142	2474.34863	-405.99561	973.67590	1979.84973										-285.58429	614.24121	2420.95947	-260.46310	588.59430	2080.06323	-65.68047	157.37337	2340.74707	-120.29101	98.20033	2143.27026	
468	4.670													-133.91449	1586.96509	2308.98560	-165.17758	1784.24768	2252.11060	-263.65198	1518.76355	2189.31030				-150.75264	1249.64941	2475.19409				-334.62158	996.69324	2472.99829	-404.72665	973.17853	1976.52771										-293.69119	615.04108	2419.12915	-259.78876	588.93750	2079.17944	-78.99693	154.19168	2351.06494	-120.32806	97.97141	2143.32935	
469	4.680													-140.55455	1587.55884	2311.46826	-172.18144	1784.72498	2253.71655	-267.31158	1518.60474	2188.65601				-159.06462	1250.23962	2477.64575				-341.71124	995.83771	2472.36841	-403.04001	972.97760	1972.36377										-301.85101	615.46368	2418.45728	-258.62375	589.28839	2077.66431	-91.70879	150.31203	2361.72388	-120.35201	97.95620	2143.36255	
470	4.690													-146.76372	1587.67200	2313.33057	-178.38669	1784.65625	2253.99609	-270.85474	1518.58606	2188.10840				-167.21568	1250.26990	2479.76221				-348.15735	995.29333	2471.87842	-401.12842	972.30139	1968.13232										-310.25955	615.59424	2416.82910	-257.39990	589.81940	2076.06470	-106.21294	146.63885	2370.99878	-120.31913	97.91727	2143.31909	
471	4.700													-153.97676	1588.03845	2315.98438	-185.00739	1784.96582	2254.91162	-274.27628	1518.67822	2187.50830				-175.48119	1250.42871	2481.76563				-354.80457	994.55530	2471.04346	-399.80536	972.09222	1966.18079										-317.55463	615.17426	2415.26318	-256.29483	590.39032	2074.61597	-120.68330	143.48068	2380.70215	-120.36257	97.69634	2143.38672	
472	4.710													-160.79704	1588.15320	2317.78223	-191.97411	1785.15442	2256.19849	-278.01651	1518.43079	2186.57056				-184.25211	1250.93762	2484.15674				-361.41025	993.73639	2469.92651	-397.36441	971.61499	1962.72632										-324.80359	615.81293	2413.14111	-255.29022	589.41156	2077.80640	-134.55363	139.78542	2391.45190	-120.36162	97.56503	2143.39014	
473	4.720													-167.89760	1588.61621	2319.88135	-198.95187	1785.67908	2256.69043	-281.63089	1517.74170	2185.29761				-192.81831	1250.91174	2486.20044				-368.35815	993.11786	2469.56128	-395.48050	971.18768	1959.23096										-332.45081	616.28931	2412.32373	-254.73705	588.34552	2079.95435	-150.27026	136.93349	2399.46704	-120.37936	97.50340	2143.41675	
474	4.730													-175.12024	1589.53308	2321.96973	-205.78378	1785.63220	2257.11426	-285.44995	1517.14258	2185.74463										-375.39310	992.20898	2468.50732	-394.40396	968.89514	1963.73450										-340.03717	616.24408	2410.95508	-254.09274	588.66364	2079.10889	-164.18045	133.74626	2410.22998	-120.42722	97.58444	2141.77490	
475	4.740													-182.45778	1589.25952	2324.26318	-212.66811	1785.80994	2258.14868	-288.76324	1516.74646	2185.36206										-382.37030	991.45264	2467.26880	-390.50497	970.14966	1953.40686										-346.57529	616.14294	2409.77490	-253.29845	588.88171	2079.70654	-180.51028	131.83600	2418.31396	-120.37091	97.54758	2141.69946	
476	4.750													-189.59457	1589.76245	2325.91675	-219.50681	1785.77478	2258.89478	-292.43451	1516.55713	2184.53320										-389.21552	990.36652	2468.30054	-389.11664	969.77606	1951.92090										-353.81360	616.00470	2408.48120	-252.70778	589.20190	2078.92993	-196.55750	128.61835	2426.58960	-120.44601	97.49255	2141.80396	
477	4.760													-197.47186	1589.82605	2328.43799	-226.60300	1785.57971	2259.68774	-295.79373	1516.37366	2183.47583										-396.14182	989.66089	2466.78784	-385.80142	969.16785	1948.34436										-360.38327	615.63672	2407.01123	-251.83133	589.65729	2077.77832	-212.06874	126.46491	2435.31665	-120.49335	97.47437	2141.86938	
478	4.770													-204.47346	1590.02637	2329.40796	-233.38197	1785.19934	2259.57544	-299.41580	1516.39343	2183.49487										-401.47223	988.03784	2464.12646	-383.51895	968.54468	1944.75146										-367.25766	615.92615	2406.01807	-251.02324	590.23920	2076.70898	-228.02028	124.84560	2442.37085	-120.55612	97.46258	2141.95557	
479	4.780													-212.20322	1589.94556	2331.63794	-240.28572	1785.21057	2260.81567	-302.92548	1515.92908	2183.78857										-408.42783	987.25800	2462.72607	-379.89832	967.85577	1941.72046										-374.13809	615.57129	2404.17212	-250.22807	590.83820	2075.65552	-244.06248	123.07638	2449.51001	-120.61530	97.43496	2142.03760	
480	4.790													-219.60704	1590.27625	2333.27124	-247.24768	1785.53113	2261.98096	-306.64835	1515.83618	2183.08374										-414.91479	985.87750	2461.31689	-377.27463	967.51013	1940.65723										-380.57028	615.79694	2402.76904	-249.72368	591.13788	2074.99097	-259.69894	121.04999	2455.50122	-120.60714	97.44230	2142.02612	
481	4.800													-227.09811	1590.12671	2335.25122				-310.83441	1516.46887	2184.42725										-421.57968	984.92963	2460.14917	-374.02069	966.83295	1938.03638										-387.09085	615.79004	2401.04810	-249.37271	591.46191	2074.52319	-275.08887	119.49770	2461.41455	-120.66599	97.45063	2142.10620	
482	4.810													-234.39130	1590.47192	2336.36328				-314.38382	1516.30554	2185.03540										-428.14090	983.83868	2458.26563	-370.37280	965.89233	1936.02783										-393.64130	615.53729	2399.51270	-248.69728	590.64972	2078.13037	-290.75632	118.87622	2467.32422	-120.69469	97.47268	2142.14453	
